<svg xmlns="http://www.w3.org/2000/svg" viewBox="0 0 24 24" fill="none" stroke="currentColor" strokeWidth="1.5" strokeLinecap="round" strokeLinejoin="round" className="h-10 w-10 text-amber-600">
        <path d="M 7 14 C 7 14 2 10 2 8 C 2 6 3 6 5 6 C 7 6 9 8 9 8"/>
        <path d="M 17 14 C 17 14 22 10 22 8 C 22 6 21 6 19 6 C 17 6 15 8 15 8"/>
        <path d="M 18 12 C 18 10 16 9 12 9 C 8 9 6 10 6 12 C 6 14 8 16 11 15 C 12 15 12 15 13 15 C 16 16 18 14 18 12 Z"/>
        <path d="M 9 9 L 9 7 C 9 5 10 4 12 4 C 14 4 15 5 15 7 L 15 9"/>
        <circle cx="9" cy="12" r="1"/>
        <circle cx="15" cy="12" r="1"/>
</svg>